<svg width="360" height="760" viewBox="0 0 360 760" fill="none" xmlns="http://www.w3.org/2000/svg">
<g clip-path="url(#clip0_1_31)">
<rect width="360" height="760" fill="white"/>
<rect width="360" height="760" fill="url(#paint0_linear_1_31)"/>
<g filter="url(#filter0_f_1_31)">
<ellipse cx="205.356" cy="247.185" rx="44.0678" ry="44.185" fill="url(#paint1_radial_1_31)"/>
</g>
<path d="M249.424 247.185C249.424 237.245 246.081 227.595 239.935 219.795C233.79 211.995 225.2 206.5 215.556 204.2C205.911 201.899 195.774 202.926 186.784 207.116C177.793 211.305 170.474 218.412 166.01 227.287C161.545 236.162 160.196 246.288 162.179 256.027C164.163 265.766 169.365 274.55 176.943 280.959C184.521 287.368 194.033 291.028 203.942 291.347C213.85 291.666 223.577 288.626 231.55 282.717L205.356 247.185H249.424Z" fill="url(#paint2_linear_1_31)"/>
<g filter="url(#filter1_d_1_31)">
<path d="M138.83 220.844C167.528 220.844 191.87 239.418 200.403 265.156C208.019 259.725 217.332 256.531 227.39 256.531C253.132 256.531 274 277.455 274 303.266C274 328.507 254.042 349.074 229.085 349.969V350H135.864V349.932C101.436 348.387 74 320.097 74 285.422C74 249.757 103.025 220.844 138.83 220.844Z" fill="url(#paint3_radial_1_31)"/>
</g>
<g filter="url(#filter2_i_1_31)">
<path d="M138.83 220.844C167.528 220.844 191.87 239.418 200.403 265.156C208.019 259.725 217.332 256.531 227.39 256.531C253.132 256.531 274 277.455 274 303.266C274 328.507 254.042 349.074 229.085 349.969V350H135.864V349.932C101.436 348.387 74 320.097 74 285.422C74 249.757 103.025 220.844 138.83 220.844Z" fill="url(#paint4_radial_1_31)"/>
</g>
<path d="M132.287 402.08L124.487 430H117.887L112.647 410.12L107.167 430L100.607 430.04L93.087 402.08H99.087L104.007 423.76L109.687 402.08H115.927L121.287 423.64L126.247 402.08H132.287ZM156.544 418.44C156.544 419.24 156.49 419.96 156.384 420.6H140.184C140.317 422.2 140.877 423.453 141.864 424.36C142.85 425.267 144.064 425.72 145.504 425.72C147.584 425.72 149.064 424.827 149.944 423.04H155.984C155.344 425.173 154.117 426.933 152.304 428.32C150.49 429.68 148.264 430.36 145.624 430.36C143.49 430.36 141.57 429.893 139.864 428.96C138.184 428 136.864 426.653 135.904 424.92C134.97 423.187 134.504 421.187 134.504 418.92C134.504 416.627 134.97 414.613 135.904 412.88C136.837 411.147 138.144 409.813 139.824 408.88C141.504 407.947 143.437 407.48 145.624 407.48C147.73 407.48 149.61 407.933 151.264 408.84C152.944 409.747 154.237 411.04 155.144 412.72C156.077 414.373 156.544 416.28 156.544 418.44ZM150.744 416.84C150.717 415.4 150.197 414.253 149.184 413.4C148.17 412.52 146.93 412.08 145.464 412.08C144.077 412.08 142.904 412.507 141.944 413.36C141.01 414.187 140.437 415.347 140.224 416.84H150.744ZM159.191 418.84C159.191 416.6 159.631 414.613 160.511 412.88C161.418 411.147 162.631 409.813 164.151 408.88C165.698 407.947 167.418 407.48 169.311 407.48C170.964 407.48 172.404 407.813 173.631 408.48C174.884 409.147 175.884 409.987 176.631 411V407.84H182.271V430H176.631V426.76C175.911 427.8 174.911 428.667 173.631 429.36C172.378 430.027 170.924 430.36 169.271 430.36C167.404 430.36 165.698 429.88 164.151 428.92C162.631 427.96 161.418 426.613 160.511 424.88C159.631 423.12 159.191 421.107 159.191 418.84ZM176.631 418.92C176.631 417.56 176.364 416.4 175.831 415.44C175.298 414.453 174.578 413.707 173.671 413.2C172.764 412.667 171.791 412.4 170.751 412.4C169.711 412.4 168.751 412.653 167.871 413.16C166.991 413.667 166.271 414.413 165.711 415.4C165.178 416.36 164.911 417.507 164.911 418.84C164.911 420.173 165.178 421.347 165.711 422.36C166.271 423.347 166.991 424.107 167.871 424.64C168.778 425.173 169.738 425.44 170.751 425.44C171.791 425.44 172.764 425.187 173.671 424.68C174.578 424.147 175.298 423.4 175.831 422.44C176.364 421.453 176.631 420.28 176.631 418.92ZM194.26 412.44V423.16C194.26 423.907 194.434 424.453 194.78 424.8C195.154 425.12 195.767 425.28 196.62 425.28H199.22V430H195.7C190.98 430 188.62 427.707 188.62 423.12V412.44H185.98V407.84H188.62V402.36H194.26V407.84H199.22V412.44H194.26ZM215.728 407.52C217.408 407.52 218.902 407.893 220.208 408.64C221.515 409.36 222.528 410.44 223.248 411.88C223.995 413.293 224.368 415 224.368 417V430H218.768V417.76C218.768 416 218.328 414.653 217.448 413.72C216.568 412.76 215.368 412.28 213.848 412.28C212.302 412.28 211.075 412.76 210.168 413.72C209.288 414.653 208.848 416 208.848 417.76V430H203.248V400.4H208.848V410.6C209.568 409.64 210.528 408.893 211.728 408.36C212.928 407.8 214.262 407.52 215.728 407.52ZM250.294 418.44C250.294 419.24 250.24 419.96 250.134 420.6H233.934C234.067 422.2 234.627 423.453 235.614 424.36C236.6 425.267 237.814 425.72 239.254 425.72C241.334 425.72 242.814 424.827 243.694 423.04H249.734C249.094 425.173 247.867 426.933 246.054 428.32C244.24 429.68 242.014 430.36 239.374 430.36C237.24 430.36 235.32 429.893 233.614 428.96C231.934 428 230.614 426.653 229.654 424.92C228.72 423.187 228.254 421.187 228.254 418.92C228.254 416.627 228.72 414.613 229.654 412.88C230.587 411.147 231.894 409.813 233.574 408.88C235.254 407.947 237.187 407.48 239.374 407.48C241.48 407.48 243.36 407.933 245.014 408.84C246.694 409.747 247.987 411.04 248.894 412.72C249.827 414.373 250.294 416.28 250.294 418.44ZM244.494 416.84C244.467 415.4 243.947 414.253 242.934 413.4C241.92 412.52 240.68 412.08 239.214 412.08C237.827 412.08 236.654 412.507 235.694 413.36C234.76 414.187 234.187 415.347 233.974 416.84H244.494ZM259.981 411.28C260.701 410.107 261.634 409.187 262.781 408.52C263.954 407.853 265.288 407.52 266.781 407.52V413.4H265.301C263.541 413.4 262.208 413.813 261.301 414.64C260.421 415.467 259.981 416.907 259.981 418.96V430H254.381V407.84H259.981V411.28Z" fill="#0A0A22"/>
<path d="M139.624 446.272V448.048H132.352V453.688H138.256V455.464H132.352V463H130.168V446.272H139.624ZM147.998 463.216C146.766 463.216 145.646 462.936 144.638 462.376C143.646 461.816 142.862 461.024 142.286 460C141.726 458.96 141.446 457.76 141.446 456.4C141.446 455.056 141.734 453.872 142.31 452.848C142.902 451.808 143.702 451.016 144.71 450.472C145.718 449.912 146.846 449.632 148.094 449.632C149.342 449.632 150.47 449.912 151.478 450.472C152.486 451.016 153.278 451.8 153.854 452.824C154.446 453.848 154.742 455.04 154.742 456.4C154.742 457.76 154.438 458.96 153.83 460C153.238 461.024 152.43 461.816 151.406 462.376C150.382 462.936 149.246 463.216 147.998 463.216ZM147.998 461.296C148.782 461.296 149.518 461.112 150.206 460.744C150.894 460.376 151.446 459.824 151.862 459.088C152.294 458.352 152.51 457.456 152.51 456.4C152.51 455.344 152.302 454.448 151.886 453.712C151.47 452.976 150.926 452.432 150.254 452.08C149.582 451.712 148.854 451.528 148.07 451.528C147.27 451.528 146.534 451.712 145.862 452.08C145.206 452.432 144.678 452.976 144.278 453.712C143.878 454.448 143.678 455.344 143.678 456.4C143.678 457.472 143.87 458.376 144.254 459.112C144.654 459.848 145.182 460.4 145.838 460.768C146.494 461.12 147.214 461.296 147.998 461.296ZM159.798 451.984C160.182 451.232 160.726 450.648 161.43 450.232C162.15 449.816 163.022 449.608 164.046 449.608V451.864H163.47C161.022 451.864 159.798 453.192 159.798 455.848V463H157.614V449.848H159.798V451.984ZM178.567 455.92C178.567 456.336 178.543 456.776 178.495 457.24H167.983C168.063 458.536 168.503 459.552 169.303 460.288C170.119 461.008 171.103 461.368 172.255 461.368C173.199 461.368 173.983 461.152 174.607 460.72C175.247 460.272 175.695 459.68 175.951 458.944H178.303C177.951 460.208 177.247 461.24 176.191 462.04C175.135 462.824 173.823 463.216 172.255 463.216C171.007 463.216 169.887 462.936 168.895 462.376C167.919 461.816 167.151 461.024 166.591 460C166.031 458.96 165.751 457.76 165.751 456.4C165.751 455.04 166.023 453.848 166.567 452.824C167.111 451.8 167.871 451.016 168.847 450.472C169.839 449.912 170.975 449.632 172.255 449.632C173.503 449.632 174.607 449.904 175.567 450.448C176.527 450.992 177.263 451.744 177.775 452.704C178.303 453.648 178.567 454.72 178.567 455.92ZM176.311 455.464C176.311 454.632 176.127 453.92 175.759 453.328C175.391 452.72 174.887 452.264 174.247 451.96C173.623 451.64 172.927 451.48 172.159 451.48C171.055 451.48 170.111 451.832 169.327 452.536C168.559 453.24 168.119 454.216 168.007 455.464H176.311ZM180.634 456.4C180.634 455.04 180.906 453.856 181.45 452.848C181.994 451.824 182.746 451.032 183.706 450.472C184.682 449.912 185.794 449.632 187.042 449.632C188.658 449.632 189.986 450.024 191.026 450.808C192.082 451.592 192.778 452.68 193.114 454.072H190.762C190.538 453.272 190.098 452.64 189.442 452.176C188.802 451.712 188.002 451.48 187.042 451.48C185.794 451.48 184.786 451.912 184.018 452.776C183.25 453.624 182.866 454.832 182.866 456.4C182.866 457.984 183.25 459.208 184.018 460.072C184.786 460.936 185.794 461.368 187.042 461.368C188.002 461.368 188.802 461.144 189.442 460.696C190.082 460.248 190.522 459.608 190.762 458.776H193.114C192.762 460.12 192.058 461.2 191.002 462.016C189.946 462.816 188.626 463.216 187.042 463.216C185.794 463.216 184.682 462.936 183.706 462.376C182.746 461.816 181.994 461.024 181.45 460C180.906 458.976 180.634 457.776 180.634 456.4ZM195.212 456.376C195.212 455.032 195.484 453.856 196.028 452.848C196.572 451.824 197.316 451.032 198.26 450.472C199.22 449.912 200.284 449.632 201.452 449.632C202.604 449.632 203.604 449.88 204.452 450.376C205.3 450.872 205.932 451.496 206.348 452.248V449.848H208.556V463H206.348V460.552C205.916 461.32 205.268 461.96 204.404 462.472C203.556 462.968 202.564 463.216 201.428 463.216C200.26 463.216 199.204 462.928 198.26 462.352C197.316 461.776 196.572 460.968 196.028 459.928C195.484 458.888 195.212 457.704 195.212 456.376ZM206.348 456.4C206.348 455.408 206.148 454.544 205.748 453.808C205.348 453.072 204.804 452.512 204.116 452.128C203.444 451.728 202.7 451.528 201.884 451.528C201.068 451.528 200.324 451.72 199.652 452.104C198.98 452.488 198.444 453.048 198.044 453.784C197.644 454.52 197.444 455.384 197.444 456.376C197.444 457.384 197.644 458.264 198.044 459.016C198.444 459.752 198.98 460.32 199.652 460.72C200.324 461.104 201.068 461.296 201.884 461.296C202.7 461.296 203.444 461.104 204.116 460.72C204.804 460.32 205.348 459.752 205.748 459.016C206.148 458.264 206.348 457.392 206.348 456.4ZM216.902 463.216C215.894 463.216 214.99 463.048 214.19 462.712C213.39 462.36 212.758 461.88 212.294 461.272C211.83 460.648 211.574 459.936 211.526 459.136H213.782C213.846 459.792 214.15 460.328 214.694 460.744C215.254 461.16 215.982 461.368 216.878 461.368C217.71 461.368 218.366 461.184 218.846 460.816C219.326 460.448 219.566 459.984 219.566 459.424C219.566 458.848 219.31 458.424 218.798 458.152C218.286 457.864 217.494 457.584 216.422 457.312C215.446 457.056 214.646 456.8 214.022 456.544C213.414 456.272 212.886 455.88 212.438 455.368C212.006 454.84 211.79 454.152 211.79 453.304C211.79 452.632 211.99 452.016 212.39 451.456C212.79 450.896 213.358 450.456 214.094 450.136C214.83 449.8 215.67 449.632 216.614 449.632C218.07 449.632 219.246 450 220.142 450.736C221.038 451.472 221.518 452.48 221.582 453.76H219.398C219.35 453.072 219.07 452.52 218.558 452.104C218.062 451.688 217.39 451.48 216.542 451.48C215.758 451.48 215.134 451.648 214.67 451.984C214.206 452.32 213.974 452.76 213.974 453.304C213.974 453.736 214.11 454.096 214.382 454.384C214.67 454.656 215.022 454.88 215.438 455.056C215.87 455.216 216.462 455.4 217.214 455.608C218.158 455.864 218.926 456.12 219.518 456.376C220.11 456.616 220.614 456.984 221.03 457.48C221.462 457.976 221.686 458.624 221.702 459.424C221.702 460.144 221.502 460.792 221.102 461.368C220.702 461.944 220.134 462.4 219.398 462.736C218.678 463.056 217.846 463.216 216.902 463.216ZM227.45 451.648V459.4C227.45 460.04 227.586 460.496 227.858 460.768C228.13 461.024 228.602 461.152 229.273 461.152H230.882V463H228.914C227.698 463 226.786 462.72 226.178 462.16C225.57 461.6 225.266 460.68 225.266 459.4V451.648H223.562V449.848H225.266V446.536H227.45V449.848H230.882V451.648H227.45Z" fill="#8B95A2"/>
</g>
<defs>
<filter id="filter0_f_1_31" x="92.1793" y="133.891" width="226.353" height="226.588" filterUnits="userSpaceOnUse" color-interpolation-filters="sRGB">
<feFlood flood-opacity="0" result="BackgroundImageFix"/>
<feBlend mode="normal" in="SourceGraphic" in2="BackgroundImageFix" result="shape"/>
<feGaussianBlur stdDeviation="34.5544" result="effect1_foregroundBlur_1_31"/>
</filter>
<filter id="filter1_d_1_31" x="23" y="211.844" width="268" height="197.156" filterUnits="userSpaceOnUse" color-interpolation-filters="sRGB">
<feFlood flood-opacity="0" result="BackgroundImageFix"/>
<feColorMatrix in="SourceAlpha" type="matrix" values="0 0 0 0 0 0 0 0 0 0 0 0 0 0 0 0 0 0 127 0" result="hardAlpha"/>
<feOffset dx="-17" dy="25"/>
<feGaussianBlur stdDeviation="17"/>
<feColorMatrix type="matrix" values="0 0 0 0 0.606242 0 0 0 0 0.650102 0 0 0 0 0.701936 0 0 0 0.2 0"/>
<feBlend mode="normal" in2="BackgroundImageFix" result="effect1_dropShadow_1_31"/>
<feBlend mode="normal" in="SourceGraphic" in2="effect1_dropShadow_1_31" result="shape"/>
</filter>
<filter id="filter2_i_1_31" x="74" y="220.844" width="200" height="133.156" filterUnits="userSpaceOnUse" color-interpolation-filters="sRGB">
<feFlood flood-opacity="0" result="BackgroundImageFix"/>
<feBlend mode="normal" in="SourceGraphic" in2="BackgroundImageFix" result="shape"/>
<feColorMatrix in="SourceAlpha" type="matrix" values="0 0 0 0 0 0 0 0 0 0 0 0 0 0 0 0 0 0 127 0" result="hardAlpha"/>
<feOffset dy="4"/>
<feGaussianBlur stdDeviation="2.5"/>
<feComposite in2="hardAlpha" operator="arithmetic" k2="-1" k3="1"/>
<feColorMatrix type="matrix" values="0 0 0 0 1 0 0 0 0 1 0 0 0 0 1 0 0 0 1 0"/>
<feBlend mode="normal" in2="shape" result="effect1_innerShadow_1_31"/>
</filter>
<linearGradient id="paint0_linear_1_31" x1="88.5515" y1="-248.765" x2="-522.945" y2="26.9558" gradientUnits="userSpaceOnUse">
<stop stop-color="#F2F4F7"/>
<stop offset="1" stop-color="#BCC8D6"/>
</linearGradient>
<radialGradient id="paint1_radial_1_31" cx="0" cy="0" r="1" gradientTransform="matrix(-25.1957 62.172 -109.197 -44.4887 223.744 203)" gradientUnits="userSpaceOnUse">
<stop stop-color="#FFC100"/>
<stop offset="1" stop-color="#FF3100"/>
</radialGradient>
<linearGradient id="paint2_linear_1_31" x1="180.979" y1="206.562" x2="180.979" y2="255.445" gradientUnits="userSpaceOnUse">
<stop stop-color="#FFC100"/>
<stop offset="1" stop-color="#FF8E00"/>
</linearGradient>
<radialGradient id="paint3_radial_1_31" cx="0" cy="0" r="1" gradientUnits="userSpaceOnUse" gradientTransform="translate(179.685 248.75) rotate(90) scale(151.452 234.525)">
<stop stop-color="white"/>
<stop offset="1" stop-color="#DEE5EE"/>
</radialGradient>
<radialGradient id="paint4_radial_1_31" cx="0" cy="0" r="1" gradientUnits="userSpaceOnUse" gradientTransform="translate(179.685 248.75) rotate(90) scale(151.452 234.525)">
<stop stop-color="white" stop-opacity="0.103027"/>
<stop offset="1" stop-color="#DEE5EE"/>
</radialGradient>
<clipPath id="clip0_1_31">
<rect width="360" height="760" fill="white"/>
</clipPath>
</defs>
</svg>
