<svg width="296" height="276" viewBox="0 0 296 276" fill="none" xmlns="http://www.w3.org/2000/svg">
<g filter="url(#filter0_f_1_33)">
<ellipse cx="182.356" cy="113.294" rx="44.0678" ry="44.185" fill="url(#paint0_radial_1_33)"/>
</g>
<path d="M226.424 113.294C226.424 103.354 223.081 93.7036 216.935 85.9036C210.79 78.1037 202.2 72.6094 192.556 70.3086C182.911 68.0079 172.774 69.0353 163.784 73.2246C154.793 77.4139 147.474 84.5205 143.01 93.3958C138.545 102.271 137.196 112.397 139.179 122.136C141.163 131.875 146.365 140.659 153.943 147.068C161.521 153.477 171.033 157.137 180.942 157.456C190.85 157.775 200.577 154.735 208.55 148.826L182.356 113.294H226.424Z" fill="url(#paint1_linear_1_33)"/>
<g filter="url(#filter1_d_1_33)">
<path d="M115.83 86.9528C144.528 86.9528 168.87 105.527 177.403 131.265C185.019 125.834 194.332 122.64 204.39 122.64C230.132 122.64 251 143.564 251 169.375C251 194.616 231.042 215.183 206.085 216.078V216.109H112.864V216.041C78.4362 214.496 51 186.206 51 151.531C51 115.866 80.0254 86.953 115.83 86.9528Z" fill="url(#paint2_radial_1_33)"/>
</g>
<g filter="url(#filter2_i_1_33)">
<path d="M115.83 86.9528C144.528 86.9528 168.87 105.527 177.403 131.265C185.019 125.834 194.332 122.64 204.39 122.64C230.132 122.64 251 143.564 251 169.375C251 194.616 231.042 215.183 206.085 216.078V216.109H112.864V216.041C78.4362 214.496 51 186.206 51 151.531C51 115.866 80.0254 86.953 115.83 86.9528Z" fill="url(#paint3_radial_1_33)"/>
</g>
<defs>
<filter id="filter0_f_1_33" x="69.1793" y="-7.62939e-06" width="226.353" height="226.588" filterUnits="userSpaceOnUse" color-interpolation-filters="sRGB">
<feFlood flood-opacity="0" result="BackgroundImageFix"/>
<feBlend mode="normal" in="SourceGraphic" in2="BackgroundImageFix" result="shape"/>
<feGaussianBlur stdDeviation="34.5544" result="effect1_foregroundBlur_1_33"/>
</filter>
<filter id="filter1_d_1_33" x="0" y="77.9528" width="268" height="197.156" filterUnits="userSpaceOnUse" color-interpolation-filters="sRGB">
<feFlood flood-opacity="0" result="BackgroundImageFix"/>
<feColorMatrix in="SourceAlpha" type="matrix" values="0 0 0 0 0 0 0 0 0 0 0 0 0 0 0 0 0 0 127 0" result="hardAlpha"/>
<feOffset dx="-17" dy="25"/>
<feGaussianBlur stdDeviation="17"/>
<feColorMatrix type="matrix" values="0 0 0 0 0.606242 0 0 0 0 0.650102 0 0 0 0 0.701936 0 0 0 0.2 0"/>
<feBlend mode="normal" in2="BackgroundImageFix" result="effect1_dropShadow_1_33"/>
<feBlend mode="normal" in="SourceGraphic" in2="effect1_dropShadow_1_33" result="shape"/>
</filter>
<filter id="filter2_i_1_33" x="51" y="86.9528" width="200" height="133.156" filterUnits="userSpaceOnUse" color-interpolation-filters="sRGB">
<feFlood flood-opacity="0" result="BackgroundImageFix"/>
<feBlend mode="normal" in="SourceGraphic" in2="BackgroundImageFix" result="shape"/>
<feColorMatrix in="SourceAlpha" type="matrix" values="0 0 0 0 0 0 0 0 0 0 0 0 0 0 0 0 0 0 127 0" result="hardAlpha"/>
<feOffset dy="4"/>
<feGaussianBlur stdDeviation="2.5"/>
<feComposite in2="hardAlpha" operator="arithmetic" k2="-1" k3="1"/>
<feColorMatrix type="matrix" values="0 0 0 0 1 0 0 0 0 1 0 0 0 0 1 0 0 0 1 0"/>
<feBlend mode="normal" in2="shape" result="effect1_innerShadow_1_33"/>
</filter>
<radialGradient id="paint0_radial_1_33" cx="0" cy="0" r="1" gradientTransform="matrix(-25.1957 62.172 -109.197 -44.4887 200.744 69.1089)" gradientUnits="userSpaceOnUse">
<stop stop-color="#FFC100"/>
<stop offset="1" stop-color="#FF3100"/>
</radialGradient>
<linearGradient id="paint1_linear_1_33" x1="157.979" y1="72.6707" x2="157.979" y2="121.554" gradientUnits="userSpaceOnUse">
<stop stop-color="#FFC100"/>
<stop offset="1" stop-color="#FF8E00"/>
</linearGradient>
<radialGradient id="paint2_radial_1_33" cx="0" cy="0" r="1" gradientUnits="userSpaceOnUse" gradientTransform="translate(156.685 114.859) rotate(90) scale(151.452 234.525)">
<stop stop-color="white"/>
<stop offset="1" stop-color="#DEE5EE"/>
</radialGradient>
<radialGradient id="paint3_radial_1_33" cx="0" cy="0" r="1" gradientUnits="userSpaceOnUse" gradientTransform="translate(156.685 114.859) rotate(90) scale(151.452 234.525)">
<stop stop-color="white" stop-opacity="0.103027"/>
<stop offset="1" stop-color="#DEE5EE"/>
</radialGradient>
</defs>
</svg>
